<svg width="80" height="82" viewBox="0 0 80 82" fill="none" xmlns="http://www.w3.org/2000/svg">
<path fill-rule="evenodd" clip-rule="evenodd" d="M39.6097 0.00095811C40.2968 -0.00796508 41.5621 0.0464664 42.4205 0.121421C43.2798 0.196376 44.5246 0.340039 45.1867 0.439979C45.8488 0.539919 46.9936 0.756752 47.7298 0.922723C48.466 1.0878 49.2289 1.28054 49.4252 1.35014C49.6215 1.41974 49.7991 1.53218 49.8205 1.60089C49.8517 1.70172 49.7545 1.71153 49.2851 1.65532C48.9692 1.61784 48.4303 1.52504 48.0867 1.45008C47.7432 1.37513 46.9802 1.23325 46.3913 1.1351C45.8024 1.03694 44.7584 0.900415 44.0713 0.831707C43.3842 0.762998 42.2001 0.666628 41.439 0.615766C40.5315 0.55598 39.5499 0.554196 38.5835 0.609519C37.7733 0.65592 36.549 0.754075 35.862 0.827245C35.1749 0.900415 34.2513 1.02266 33.8096 1.0994C33.3679 1.17614 32.5452 1.33676 31.9804 1.45633C31.4155 1.5759 30.5527 1.77667 30.0619 1.90249C29.5711 2.02831 28.8885 2.21302 28.5449 2.31296C28.2014 2.41379 27.5589 2.61545 27.1172 2.76358C26.6755 2.91081 25.7921 3.23561 25.1541 3.48546C24.5161 3.73531 23.2116 4.3403 22.2541 4.83019C21.2966 5.32007 20.1125 5.96343 19.6218 6.25968C19.131 6.55593 18.3484 7.05831 17.8817 7.37686C17.4151 7.69542 16.612 8.27811 16.0971 8.67251C15.5822 9.06602 14.7791 9.71742 14.3125 10.1199C13.8458 10.5223 12.8196 11.5083 12.0308 12.3114C11.2429 13.1136 10.2364 14.1924 9.79465 14.7073C9.35296 15.2221 8.79079 15.9048 8.5463 16.2242C8.3018 16.5437 7.86189 17.146 7.56832 17.5627C7.27564 17.9794 6.85089 18.6228 6.62603 18.9904C6.40117 19.3589 6.05673 19.9407 5.85953 20.2843C5.66322 20.6278 5.38125 21.1302 5.23223 21.3997C5.08321 21.6691 4.74056 22.3321 4.47108 22.872C4.20071 23.4118 3.87323 24.0945 3.74206 24.3889C3.61178 24.6834 3.40833 25.1652 3.29144 25.4597C3.17454 25.7542 2.85777 26.6572 2.58829 27.4674C2.31881 28.2776 1.95742 29.4823 1.7852 30.1444C1.61298 30.8065 1.36938 31.8808 1.24446 32.5313C1.11953 33.1818 0.939283 34.3463 0.84559 35.1191C0.751004 35.8918 0.651064 36.926 0.623402 37.4168C0.595741 37.9075 0.551125 38.9319 0.523463 39.6922C0.491339 40.597 0.52257 41.6615 0.613587 42.7707C0.690326 43.7032 0.83399 45.0283 0.933037 45.7153C1.03208 46.4024 1.2159 47.467 1.34172 48.08C1.46664 48.6939 1.66742 49.5773 1.78699 50.0431C1.90656 50.5089 2.22779 51.5939 2.50084 52.4523C2.77389 53.3116 3.21826 54.5359 3.48953 55.1739C3.7599 55.8119 4.25157 56.8765 4.58262 57.5386C4.91278 58.2007 5.41605 59.1447 5.6998 59.6355C5.98356 60.1263 6.27803 60.6287 6.35477 60.7509C6.4315 60.874 6.82769 61.4764 7.23638 62.0894C7.64506 62.7033 8.12869 63.4118 8.31251 63.6643C8.49633 63.9169 9.02101 64.579 9.47966 65.1367C9.93832 65.6935 10.9217 66.7874 11.6658 67.5682C12.41 68.3481 13.4799 69.3939 14.0448 69.8927C14.6096 70.3906 15.5528 71.1589 16.1417 71.5997C16.7306 72.0405 17.6943 72.7258 18.2833 73.122C18.8722 73.5182 19.8359 74.1125 20.4248 74.4426C21.0138 74.7728 22.1783 75.376 23.0126 75.7829C23.8469 76.1907 24.9105 76.6743 25.3772 76.8573C25.8439 77.0402 26.8067 77.3828 27.5188 77.6184C28.2308 77.854 29.1642 78.1502 29.5934 78.2778C30.1252 78.4349 30.3742 78.5509 30.3742 78.6419C30.3742 78.716 30.3242 78.7981 30.2627 78.8257C30.2011 78.8525 29.9102 78.8088 29.6157 78.7285C29.3213 78.6481 28.5985 78.4286 28.0096 78.2421C27.4206 78.0556 26.2767 77.6541 25.4664 77.3498C24.6562 77.0455 23.332 76.4637 22.5218 76.0586C21.7116 75.6526 20.5471 75.028 19.9341 74.6711C19.3202 74.3133 18.2369 73.6289 17.5248 73.1506C16.8127 72.6723 15.8696 72.0004 15.4279 71.6586C14.9862 71.316 14.1831 70.6556 13.6432 70.1899C13.1034 69.725 12.1771 68.8657 11.5846 68.2821C10.9921 67.6976 10.0882 66.7187 9.57693 66.1066C9.06474 65.4945 8.44279 64.7315 8.19473 64.4112C7.94666 64.0909 7.38182 63.2869 6.93834 62.6248C6.49486 61.9627 5.90861 61.0382 5.63466 60.5724C5.36072 60.1067 4.83515 59.1224 4.46662 58.3863C4.09809 57.6501 3.6671 56.7667 3.51005 56.4232C3.35301 56.0796 2.99429 55.1962 2.71232 54.4601C2.43035 53.7239 2.03594 52.5791 1.83606 51.917C1.63618 51.2549 1.37117 50.3509 1.24713 49.9092C1.1231 49.4675 0.921437 48.6243 0.798297 48.0354C0.676049 47.4464 0.516324 46.5827 0.443154 46.1169C0.370876 45.6502 0.26826 44.8676 0.216505 44.3769C0.163858 43.8861 0.084442 42.6011 0.0389337 41.5214C-0.0137131 40.2918 -0.0128208 39.0247 0.0407184 38.1306C0.0880113 37.3454 0.187059 36.1604 0.262013 35.4983C0.336968 34.8362 0.49937 33.7315 0.624295 33.0444C0.749219 32.3573 0.990145 31.233 1.16058 30.5459C1.33012 29.8588 1.67277 28.6542 1.92173 27.869C2.16979 27.0837 2.61684 25.8184 2.91398 25.0582C3.21113 24.2979 3.7831 23.0326 4.18554 22.2474C4.58708 21.4621 5.28844 20.1968 5.74353 19.4366C6.19861 18.6763 6.79557 17.7322 7.06951 17.3396C7.34256 16.947 7.86725 16.2447 8.23488 15.778C8.60162 15.3114 9.26372 14.5083 9.70542 13.9934C10.1471 13.4785 11.093 12.4738 11.8086 11.7617C12.5234 11.0496 13.5094 10.1225 14.0002 9.70225C14.4909 9.28196 15.294 8.63682 15.7848 8.26829C16.2756 7.89976 17.1188 7.30191 17.6587 6.93963C18.1985 6.57735 19.1015 6.00626 19.6664 5.66986C20.2312 5.33435 21.3957 4.70794 22.2541 4.27784C23.1134 3.84774 24.3377 3.29094 24.9757 3.04109C25.6137 2.79035 26.6782 2.40308 27.3403 2.18C28.0024 1.95692 29.2481 1.59553 30.1065 1.37691C30.9658 1.1583 32.2909 0.856692 33.0512 0.706782C33.8114 0.55598 35.0767 0.353424 35.862 0.255269C36.6472 0.157114 37.5306 0.0634204 37.8251 0.0473587C38.1195 0.0312969 38.9226 0.0107736 39.6097 0.00095811V0.00095811ZM65.4423 8.55116C65.5164 8.55205 65.636 8.5931 65.71 8.64217C65.8251 8.7198 65.8189 8.74657 65.6654 8.83759C65.5672 8.8947 65.4066 8.95002 65.3085 8.95805C65.2103 8.96698 65.0702 8.94467 64.9962 8.90898C64.8882 8.85633 64.9051 8.81617 65.0854 8.6966C65.2085 8.6154 65.3683 8.54937 65.4423 8.55116V8.55116ZM38.3381 11.5993C38.7183 11.5913 39.0306 11.594 39.0324 11.6065C39.0342 11.6189 38.8227 11.776 38.5639 11.9571C38.3051 12.1374 37.643 12.7602 37.0943 13.3402C36.5446 13.9202 35.9021 14.6359 35.6665 14.9312C35.4301 15.2257 35.0901 15.7477 34.909 16.0912C34.7287 16.4339 34.5137 16.9158 34.4316 17.1611C34.3486 17.4065 34.2219 17.9089 34.1505 18.2765C34.0791 18.6451 34.0202 19.3473 34.0193 19.8381C34.0193 20.3289 34.0452 20.891 34.0782 21.0873C34.1103 21.2837 34.1933 21.7253 34.262 22.0689C34.3307 22.4124 34.461 22.9344 34.5502 23.2289C34.6404 23.5234 34.9063 24.1453 35.1419 24.612C35.3765 25.0787 35.7344 25.7006 35.9351 25.9951C36.1368 26.2896 36.624 26.8669 37.0184 27.2782C37.4128 27.6896 38.0169 28.2527 38.3605 28.5293C38.704 28.8059 39.1457 29.1396 39.342 29.2699C39.5383 29.4011 40.1406 29.7741 40.6805 30.1007C41.2203 30.4272 42.2447 30.9849 42.9559 31.341C43.6671 31.6961 45.4544 32.5233 46.9267 33.1774C48.399 33.8323 50.4469 34.7657 51.4775 35.252C52.5082 35.7383 53.9341 36.4638 54.6453 36.8653C55.3564 37.266 56.3603 37.8897 56.8761 38.2502C57.3918 38.6116 58.1744 39.2032 58.6161 39.5655C59.0578 39.9278 59.6672 40.456 59.9697 40.7389C60.2722 41.0217 60.7487 41.5143 61.028 41.8338C61.3064 42.1532 61.7463 42.735 62.0042 43.1276C62.263 43.5202 62.6458 44.1832 62.8555 44.5999C63.0652 45.0167 63.3668 45.66 63.5256 46.0276C63.6853 46.3962 63.8442 46.8379 63.8799 47.0092C63.9441 47.3179 63.9397 47.3233 63.5113 47.4902C63.2731 47.5839 62.5557 47.8614 61.9177 48.1076C61.2797 48.353 60.075 48.8831 59.2407 49.2837C58.4064 49.6844 57.2419 50.3081 56.653 50.6686C56.064 51.0291 55.161 51.6261 54.6453 51.9946C54.1295 52.3631 53.4272 52.886 53.0837 53.1564C52.7402 53.4259 52.1378 53.9282 51.7452 54.2718C51.3526 54.6162 50.4201 55.5014 49.6742 56.2402C48.9273 56.9791 48.2973 57.5635 48.2741 57.5386C48.2518 57.5136 48.1911 57.2334 48.1403 56.9139C48.0894 56.5945 47.9493 55.9922 47.8288 55.5755C47.7084 55.1587 47.5281 54.5966 47.4273 54.3262C47.3274 54.0558 46.9954 53.4535 46.6894 52.9877C46.3806 52.5157 45.7952 51.8018 45.3705 51.3789C44.9502 50.9595 44.2051 50.3161 43.7144 49.9476C43.2236 49.58 42.3803 49.0125 41.8405 48.6868C41.3006 48.362 40.1763 47.7543 39.342 47.3376C38.5077 46.9218 37.0621 46.2391 36.1297 45.8215C35.1972 45.4039 33.8114 44.7731 33.0512 44.4197C32.2909 44.0663 31.246 43.5649 30.7311 43.307C30.2163 43.0482 29.1116 42.4673 28.2773 42.0158C27.4429 41.5652 26.3793 40.945 25.9126 40.6389C25.4459 40.3329 24.7035 39.7787 24.2618 39.4084C23.8201 39.0381 23.0215 38.2779 22.4879 37.7193C21.9534 37.1598 21.3047 36.3817 21.045 35.9891C20.7853 35.5964 20.4115 34.954 20.2143 34.5614C20.0171 34.1687 19.7485 33.5263 19.6164 33.1336C19.4852 32.741 19.2978 32.0584 19.2006 31.6167C19.0676 31.0099 19.0132 30.3451 18.9802 28.8951C18.94 27.1685 18.9552 26.883 19.1292 26.0397C19.2354 25.5248 19.4656 24.7218 19.6396 24.2551C19.8136 23.7893 20.1277 23.0656 20.3374 22.6489C20.5471 22.2322 20.9692 21.5094 21.2752 21.0427C21.5813 20.5769 22.1783 19.7738 22.6012 19.259C23.0233 18.7441 23.7345 17.9607 24.1797 17.519C24.625 17.0764 25.321 16.4544 25.7252 16.135C26.1294 15.8155 26.8094 15.3212 27.235 15.0365C27.6607 14.751 28.6119 14.2201 29.348 13.8569C30.0842 13.4937 31.1086 13.052 31.6234 12.8753C32.1383 12.6987 33.1832 12.4006 33.9435 12.2132C34.7037 12.0258 35.688 11.8269 36.1297 11.7715C36.5714 11.7162 37.0934 11.6582 37.2897 11.6421C37.486 11.627 37.958 11.6073 38.3381 11.5993V11.5993ZM50.5406 11.8054C51.3125 11.826 51.938 11.8911 52.2806 11.9884C52.5751 12.0714 53.1578 12.2998 53.5745 12.497C53.9912 12.6933 54.5534 13.0056 54.8237 13.1894C55.0941 13.3732 55.5153 13.7052 55.7607 13.9256C56.006 14.1469 56.4353 14.6439 56.7137 15.0303C56.993 15.4167 57.4016 16.0948 57.622 16.5365C57.8424 16.9782 58.1048 17.6412 58.2047 18.0088C58.3047 18.3774 58.4251 19.06 58.4724 19.5258C58.5269 20.0683 58.5268 20.6305 58.4715 21.0873C58.4242 21.48 58.3439 21.9618 58.294 22.1581C58.244 22.3544 58.1217 22.7363 58.0236 23.0058C57.9245 23.2753 57.6872 23.7982 57.4953 24.1658C57.3035 24.5344 56.8555 25.192 56.4986 25.6284C56.1417 26.0638 55.5893 26.6179 55.2699 26.8598C54.9504 27.1007 54.2482 27.5165 53.7083 27.7842C53.0025 28.1331 52.4511 28.3321 51.7452 28.4927C51.2054 28.6149 50.5727 28.7158 50.3398 28.7158C50.1069 28.7167 49.5242 28.6373 49.046 28.5409C48.5677 28.4436 47.8743 28.2616 47.5067 28.1358C47.1382 28.0099 46.5965 27.7753 46.3021 27.6129C46.0076 27.4514 45.5258 27.1373 45.2313 26.9142C44.9368 26.692 44.4148 26.2093 44.0713 25.8416C43.7277 25.474 43.295 24.9172 43.1103 24.6031C42.9256 24.289 42.6489 23.7108 42.4955 23.3181C42.3429 22.9255 42.1412 22.3232 42.0484 21.9797C41.9547 21.6361 41.8548 20.8937 41.8253 20.3289C41.7798 19.4526 41.8003 19.1921 41.9654 18.5442C42.0716 18.1275 42.2991 17.444 42.4714 17.0273C42.6436 16.6106 43.0005 15.9476 43.2637 15.555C43.527 15.1623 43.9972 14.5913 44.3086 14.2861C44.6201 13.9809 45.0948 13.5678 45.3652 13.3688C45.6355 13.1689 46.1566 12.8503 46.5252 12.6594C46.8928 12.4693 47.455 12.2266 47.7744 12.1204C48.0939 12.0134 48.5748 11.892 48.8452 11.8501C49.1156 11.8081 49.8785 11.7876 50.5406 11.8054ZM70.4616 14.5324C70.5964 14.5306 70.8542 14.5993 71.0345 14.685C71.2147 14.7706 71.4967 15.0017 71.6609 15.198C71.8251 15.3943 72.0598 15.8057 72.1811 16.1127C72.3025 16.4196 72.4024 16.831 72.4024 17.0273C72.4024 17.2852 72.3649 17.3842 72.2686 17.3842C72.1758 17.3842 72.1187 17.2548 72.083 16.9604C72.0544 16.7275 71.9509 16.3563 71.8545 16.135C71.7573 15.9146 71.5797 15.6032 71.4601 15.4434C71.3405 15.2837 71.1219 15.0936 70.9747 15.0196C70.8275 14.9455 70.6062 14.8857 70.4839 14.8857C70.3608 14.8857 70.1404 14.9455 69.9931 15.0196C69.8459 15.0936 69.7014 15.2435 69.6719 15.3542C69.6416 15.4648 69.646 15.696 69.6808 15.8673C69.7165 16.0386 69.8673 16.4401 70.0172 16.7596C70.1841 17.1138 70.3108 17.5538 70.3429 17.8893C70.3947 18.4345 70.392 18.4425 70.0601 18.7593C69.8272 18.9824 69.5961 19.1046 69.3016 19.1617C68.9955 19.2215 68.8037 19.2126 68.61 19.1296C68.4628 19.0671 68.229 18.8994 68.0898 18.7575C67.9506 18.6156 67.7204 18.2587 67.5767 17.9642C67.434 17.6698 67.2948 17.2486 67.268 17.0273C67.2412 16.8069 67.2564 16.566 67.3028 16.4919C67.3483 16.4178 67.4304 16.3884 67.4848 16.425C67.5393 16.4616 67.5839 16.6329 67.5839 16.8042C67.5839 16.9755 67.6651 17.3476 67.765 17.6296C67.8641 17.9116 68.055 18.2569 68.1889 18.3961C68.3218 18.5353 68.5422 18.7057 68.677 18.7753C68.8117 18.8449 68.9929 18.9012 69.0785 18.9021C69.1642 18.9021 69.3855 18.7816 69.5693 18.6344C69.8727 18.3908 69.9039 18.3256 69.9012 17.9419C69.9003 17.651 69.8022 17.3075 69.5916 16.8488C69.381 16.3902 69.2829 16.0466 69.282 15.7557C69.2802 15.4693 69.34 15.2418 69.4667 15.0544C69.5702 14.9018 69.7808 14.7224 69.9351 14.6564C70.0895 14.5904 70.3269 14.5342 70.4616 14.5324ZM71.867 24.612C71.9161 24.612 71.9919 24.7021 72.0357 24.8128C72.0794 24.9234 72.2275 25.3151 72.3658 25.6828C72.5032 26.0513 72.6175 26.3609 72.6201 26.3725C72.6237 26.3833 73.5285 26.0326 74.6332 25.5918C75.737 25.1519 76.7614 24.7646 76.9086 24.7316C77.1022 24.6878 77.1638 24.7012 77.1317 24.7806C77.1067 24.8404 76.9862 24.9466 76.864 25.0171C76.7409 25.0867 76.3804 25.2598 76.0609 25.3999C75.7415 25.5409 75.0597 25.8193 74.544 26.0183C74.0282 26.2173 73.4357 26.4341 73.226 26.5001C72.9244 26.5947 72.845 26.6617 72.8468 26.8205C72.8477 26.9311 72.969 27.3327 73.1163 27.7128C73.2644 28.0929 73.3848 28.4543 73.384 28.5159C73.384 28.5775 73.3438 28.6274 73.2947 28.6274C73.2456 28.6274 73.1484 28.5373 73.0797 28.4267C73.0101 28.316 72.8343 27.8841 72.6888 27.4674C72.5434 27.0507 72.2784 26.3574 72.1008 25.9282C71.9232 25.499 71.7778 25.0269 71.7778 24.8797C71.7778 24.7325 71.8179 24.612 71.867 24.612V24.612ZM76.9675 33.6815C77.0086 33.6994 77.0666 33.9046 77.096 34.1375C77.1246 34.3704 77.204 34.8826 77.2718 35.2752C77.3387 35.6678 77.4253 36.0185 77.4636 36.0551C77.502 36.0917 78.0151 36.0551 78.604 35.9748C79.1929 35.8945 79.7453 35.8543 79.831 35.8864C79.9166 35.9186 79.9675 35.9846 79.9425 36.0337C79.9175 36.0828 79.7471 36.1613 79.5633 36.2086C79.3794 36.2559 78.4452 36.396 77.4886 36.5209C76.5321 36.6449 75.538 36.7475 74.8117 36.7475L74.8099 36.4129C74.809 36.2291 74.7305 35.5964 74.635 35.0075C74.5288 34.349 74.494 33.9019 74.544 33.8475C74.5895 33.7984 74.6885 33.7886 74.7635 33.8252C74.8393 33.8618 74.9009 34.0028 74.9009 34.1375C74.9009 34.2722 74.9714 34.8398 75.2132 36.412L75.7932 36.3531C76.1127 36.321 76.5249 36.2657 76.7096 36.2309C77.0335 36.1702 77.0451 36.1541 77.0398 35.8106C77.0371 35.6143 76.9461 35.0637 76.839 34.5872C76.6766 33.8671 76.6641 33.7137 76.7685 33.6851C76.8372 33.6655 76.9265 33.6637 76.9675 33.6815V33.6815ZM75.3836 43.555C75.6826 43.5827 76.8301 43.6746 77.9348 43.7585C79.0395 43.8424 79.9621 43.9245 79.9871 43.9423C80.0121 43.9593 79.9996 44.044 79.9595 44.1306C79.8952 44.2716 79.7962 44.2814 78.9779 44.2234C78.4782 44.1877 77.3664 44.0949 76.5071 44.0164C75.6487 43.9378 74.9152 43.8566 74.8786 43.8352C74.842 43.8138 74.8179 43.7308 74.8259 43.6505C74.8375 43.5256 74.9214 43.5113 75.3836 43.555V43.555ZM28.3665 48.9794C29.3427 48.9759 29.9218 49.0196 30.508 49.141C30.9497 49.2329 31.6725 49.4426 32.1142 49.6085C32.5559 49.7745 33.1984 50.0788 33.5419 50.2849C33.8855 50.491 34.5083 50.9354 34.925 51.2727C35.4015 51.6582 35.9075 52.1811 36.2876 52.6817C36.6195 53.1198 37.0648 53.8203 37.2781 54.237C37.4904 54.6537 37.7671 55.2765 37.8911 55.6201C38.016 55.9636 38.1989 56.6462 38.298 57.137C38.397 57.6278 38.505 58.3309 38.538 58.6986C38.58 59.159 38.555 59.6043 38.4595 60.1263C38.3828 60.543 38.1989 61.2961 38.0499 61.7994C37.9018 62.3027 37.6047 63.0656 37.3896 63.4948C37.1755 63.924 36.8649 64.4763 36.6998 64.7217C36.5348 64.9671 36.0984 65.4829 35.7299 65.8684C35.3605 66.2538 34.8179 66.7393 34.5235 66.9472C34.229 67.1551 33.707 67.4906 33.3635 67.6931C33.0199 67.8948 32.4372 68.1848 32.0696 68.3365C31.7011 68.4882 30.939 68.7372 30.3742 68.8906C29.5345 69.1182 29.1856 69.1681 28.4557 69.1637C27.9649 69.161 27.2422 69.0914 26.8495 69.0084C26.4569 68.9263 25.7743 68.7389 25.3326 68.5935C24.8909 68.4472 24.128 68.1036 23.6372 67.8297C23.1464 67.5557 22.5048 67.1462 22.2113 66.9186C21.9177 66.692 21.401 66.2253 21.0637 65.8817C20.7256 65.5382 20.2785 65.0162 20.0697 64.7217C19.8609 64.4273 19.504 63.8151 19.2764 63.3609C19.0319 62.8728 18.7509 62.1072 18.5876 61.4871C18.3698 60.659 18.3011 60.1852 18.2628 59.234C18.2315 58.4469 18.2538 57.8125 18.327 57.4047C18.3895 57.0612 18.559 56.4383 18.7053 56.0216C18.8508 55.6049 19.1774 54.8616 19.429 54.3708C19.6815 53.8801 20.1598 53.1269 20.4909 52.6977C20.8228 52.2685 21.4251 51.6368 21.8302 51.2932C22.2354 50.9506 22.968 50.4518 23.4587 50.185C23.9495 49.9173 24.6116 49.6112 24.9311 49.5041C25.2505 49.3962 25.8528 49.2355 26.2695 49.1463C26.8005 49.033 27.4295 48.983 28.3665 48.9794V48.9794ZM78.6451 51.2031C78.6959 51.2031 78.737 51.2334 78.7361 51.27C78.7352 51.3066 78.6183 51.7189 78.4764 52.1846C78.3336 52.6504 78.1677 53.2733 78.1061 53.5677C78.0454 53.8622 77.9723 54.1317 77.9428 54.1674C77.9143 54.2022 76.9862 53.955 75.8824 53.6186C74.7778 53.2813 73.7445 52.9824 73.5847 52.952C73.4223 52.9226 73.2555 52.82 73.2055 52.72C73.1564 52.6219 73.1163 52.5219 73.1163 52.497C73.1163 52.472 73.2269 52.4675 73.3616 52.4863C73.4964 52.505 74.4503 52.7709 75.4809 53.077C76.5115 53.383 77.4449 53.6489 77.5555 53.6677C77.6662 53.6864 77.7706 53.6516 77.7884 53.5901C77.8054 53.5285 77.8911 53.1778 77.9785 52.8093C78.0659 52.4416 78.231 51.9294 78.3444 51.6716C78.4586 51.4137 78.5933 51.2031 78.6451 51.2031V51.2031ZM70.7168 58.5201C70.7605 58.5201 70.8194 58.5701 70.848 58.6317C70.8756 58.6932 70.8096 58.9243 70.6999 59.1447C70.5901 59.3651 70.326 59.8175 70.1127 60.1486C69.8995 60.4796 69.7254 60.8214 69.7246 60.9071C69.7246 61.0088 69.9949 61.2229 71.287 61.9868L71.4432 61.7699C71.5288 61.6513 71.5993 61.5344 71.5993 61.5094C71.5993 61.4844 71.8197 61.0632 72.0901 60.5724C72.3738 60.0567 72.6371 59.6801 72.7147 59.6801C72.7879 59.6801 72.8486 59.6998 72.8486 59.7247C72.8486 59.7497 72.7326 60.0005 72.5907 60.2824C72.4488 60.5644 72.1704 61.0766 71.9714 61.4201C71.7733 61.7637 71.6386 62.0947 71.6725 62.1554C71.7055 62.2161 72.0847 62.4668 72.5139 62.7131C73.2216 63.1182 73.3054 63.1459 73.4063 63.0112C73.4678 62.93 73.7016 62.5382 73.9274 62.1411C74.1522 61.745 74.4128 61.2899 74.5074 61.131C74.6011 60.9713 74.718 60.8553 74.767 60.8732C74.8161 60.8901 74.8465 60.99 74.834 61.0953C74.8215 61.2006 74.6814 61.4826 74.5217 61.7218C74.3619 61.9618 74.0612 62.4633 73.8524 62.8372C73.6088 63.2744 73.4179 63.518 73.317 63.5198C73.2314 63.5216 73.06 63.4502 72.9378 63.3609C72.8147 63.2717 72.4738 63.0549 72.1793 62.8791C71.8849 62.7033 71.403 62.4294 71.1085 62.2696C70.8141 62.1108 70.2823 61.794 69.9271 61.5665C69.5318 61.3131 69.2811 61.0918 69.2802 60.9963C69.2802 60.9106 69.3935 60.6697 69.5336 60.4609C69.6737 60.2521 69.8932 59.9211 70.0217 59.7247C70.1493 59.5284 70.3019 59.2268 70.3599 59.0555C70.4179 58.8842 70.5044 58.6932 70.5517 58.6317C70.599 58.5701 70.6731 58.5201 70.7168 58.5201V58.5201ZM64.9658 66.286C65.0577 66.2877 65.9286 67.0855 66.9387 68.0929C67.9337 69.0852 68.7466 69.9275 68.7457 69.9641C68.7448 70.0007 68.6636 70.031 68.5654 70.031C68.4619 70.031 68.0265 69.6848 67.5268 69.2056C66.729 68.44 66.6594 68.3936 66.5675 68.5587C66.5131 68.6569 66.1267 69.0798 65.71 69.4992C65.2924 69.9177 64.8507 70.3299 64.7285 70.4138C64.6053 70.4986 64.475 70.5673 64.4385 70.5673C64.4019 70.5664 64.3715 70.5066 64.3715 70.4326C64.3715 70.3585 64.7963 69.8874 65.3156 69.3841C65.834 68.8808 66.3159 68.4596 66.3864 68.4472C66.456 68.4347 66.5131 68.3651 66.5131 68.291C66.5131 68.2169 66.2481 67.9064 65.9242 67.5995C65.6003 67.2925 65.2157 66.8713 65.0693 66.6625C64.8373 66.3333 64.8239 66.2833 64.9658 66.286ZM62.4307 68.9629C62.4923 68.9647 62.6627 69.0414 62.81 69.1334C62.9572 69.2253 63.7237 69.9766 64.5125 70.8038C65.3022 71.6301 65.975 72.3966 66.0072 72.5072C66.0464 72.6405 66.0292 72.7083 65.9554 72.7107C65.8938 72.7124 65.4637 72.3207 64.9988 71.8406C64.5339 71.3606 63.7407 70.5664 63.2365 70.0756C62.7315 69.5849 62.3183 69.1334 62.3192 69.0718C62.3192 69.0102 62.3692 68.9611 62.4307 68.9629ZM57.1438 73.2523C57.3151 73.246 57.5364 73.2978 57.6345 73.3683C57.8094 73.4941 57.8085 73.4977 57.5899 73.5432C57.4668 73.5682 57.1259 73.611 56.8314 73.6387C56.537 73.6654 56.1238 73.7716 55.9141 73.8742C55.7036 73.9777 55.4457 74.1892 55.3404 74.3445C55.2351 74.4998 55.1316 74.7675 55.1102 74.9388C55.0798 75.1797 55.1244 75.3171 55.3038 75.5411C55.4644 75.7401 55.6143 75.8311 55.783 75.832C55.9177 75.8329 56.4299 75.7526 56.9207 75.6526C57.4115 75.5527 57.9941 75.4706 58.2145 75.4697C58.5215 75.4688 58.6741 75.5215 58.8615 75.6946C58.9962 75.8186 59.1318 76.031 59.1631 76.1657C59.1943 76.3005 59.1943 76.5521 59.1631 76.7234C59.1318 76.8947 59.006 77.1865 58.8838 77.3703C58.7303 77.5997 58.4858 77.7888 58.103 77.9718C57.796 78.119 57.3445 78.285 57.0991 78.3412C56.8538 78.3974 56.5423 78.4179 56.4076 78.3867C56.2729 78.3555 56.1756 78.2796 56.1917 78.218C56.2086 78.1547 56.4317 78.0833 56.7047 78.0539C56.9706 78.0253 57.3891 77.937 57.6345 77.8576C57.9504 77.7549 58.1949 77.589 58.4733 77.2856C58.8454 76.8805 58.8641 76.8358 58.8151 76.4557C58.7838 76.213 58.6991 76.0096 58.6 75.9408C58.5108 75.8793 58.2868 75.8284 58.103 75.8293C57.9192 75.8302 57.457 75.9078 57.0768 76.0015C56.6967 76.0952 56.2247 76.1969 56.0284 76.2273C55.7749 76.2657 55.5831 76.2353 55.3663 76.1229C55.1994 76.0363 54.9879 75.824 54.8978 75.6526C54.8077 75.4813 54.7345 75.2199 54.7363 75.0726C54.7372 74.9254 54.8103 74.6443 54.8978 74.448C54.9852 74.2517 55.1958 73.9831 55.3645 73.8519C55.5331 73.7208 55.7919 73.5646 55.9391 73.5048C56.0864 73.4459 56.3469 73.3674 56.5191 73.3308C56.6905 73.2942 56.9715 73.2585 57.1438 73.2523V73.2523ZM49.501 81.003C49.5573 81.0003 49.6634 81.0628 49.7375 81.1404C49.8562 81.2662 49.8562 81.2823 49.7375 81.2796C49.6188 81.2769 49.6188 81.2858 49.7375 81.3545C49.8107 81.3974 49.841 81.4777 49.8044 81.5321C49.7678 81.5866 49.6572 81.6312 49.559 81.6312C49.4609 81.6312 49.3636 81.5812 49.3431 81.5196C49.3217 81.4581 49.3262 81.318 49.3511 81.2073C49.377 81.0967 49.4439 81.0048 49.501 81.003V81.003Z" fill="#FF9F89"/>
</svg>
