<svg width="40" height="50" viewBox="0 0 40 50" fill="none" xmlns="http://www.w3.org/2000/svg">
<path fill-rule="evenodd" clip-rule="evenodd" d="M16.4681 0.00165799C17.1163 -0.0125428 17.3079 0.0631949 17.1825 0.278574C17.0879 0.441884 16.6455 0.893944 16.196 1.28447C15.7489 1.67499 15.0463 2.52704 14.6347 3.17791C14.2231 3.82878 13.7453 4.89385 13.5726 5.54472C13.3928 6.22399 13.3171 7.23225 13.3928 7.91152C13.4685 8.56239 13.6956 9.57302 13.9037 10.16C14.1096 10.7446 14.5732 11.6487 14.9304 12.167C15.2876 12.6854 15.8483 13.3575 16.1724 13.6605C16.4965 13.9634 17.6154 14.7753 18.6563 15.464C19.6972 16.1527 22.2521 17.4924 24.3338 18.4438C26.4156 19.3929 28.2253 20.2473 28.3554 20.3444C28.4855 20.439 28.8593 20.6 29.1834 20.7041C29.5075 20.8059 30.52 21.3218 31.4307 21.8473C32.3415 22.3751 33.1931 22.8887 33.3232 22.9904C33.4533 23.0922 34.0377 23.5585 34.6243 24.0295C35.211 24.4981 36.1454 25.4306 36.7014 26.1004C37.2596 26.7702 37.8818 27.6388 38.0829 28.0294C38.2863 28.4199 38.6033 29.1394 39.119 30.5145L38.2319 30.8766C37.7446 31.0778 36.8125 31.4589 36.162 31.7263C35.5114 31.9938 34.5534 32.434 34.0329 32.7014C33.5125 32.9713 32.3935 33.6387 31.549 34.1854C30.7045 34.7345 29.8505 35.3617 29.6565 35.5818C29.4625 35.7996 29.2212 35.9747 29.1242 35.9676C29.0272 35.9629 28.2277 36.7155 25.7532 39.3285L25.4646 38.1759C25.3085 37.5416 24.9631 36.5972 24.6981 36.0765C24.4332 35.5558 23.7637 34.6612 23.2101 34.0884C22.6566 33.5156 21.566 32.6304 20.7854 32.1192C20.0047 31.608 18.1406 30.5974 16.6455 29.8755C15.1504 29.1536 13.4448 28.3726 12.8605 28.1406C12.2762 27.9087 10.8379 27.2247 9.6669 26.6211C8.49591 26.0176 7.1546 25.2886 6.68857 25.0022C6.22017 24.7135 5.44898 24.1596 4.97348 23.7691C4.49799 23.3786 3.65109 22.4721 3.0928 21.7573C2.53688 21.0402 1.93601 20.1361 1.76095 19.7456C1.58353 19.355 1.24288 18.503 0.99922 17.8521C0.704304 17.0632 0.556846 16.0376 0.556846 14.7753C0.554481 13.7315 0.724806 12.2972 0.932982 11.5801C1.14352 10.8629 1.48654 9.90674 1.69708 9.44995C1.90762 8.99315 2.16784 8.51506 2.2743 8.38488C2.38075 8.25471 2.73323 7.77661 3.05732 7.31982C3.38141 6.86303 4.20229 5.92577 4.88122 5.2323C5.56253 4.53882 6.81158 3.50216 7.65611 2.92703C8.50064 2.35426 9.99336 1.60162 10.968 1.2608C11.945 0.917612 13.3809 0.498687 14.1616 0.328277C14.9423 0.160234 15.9808 0.0111252 16.4681 0.00165799V0.00165799ZM27.1726 0.0087584C27.4328 -0.00307562 28.178 0.129465 28.8285 0.304609C29.4791 0.477386 30.3307 0.782704 30.721 0.983882C31.1114 1.18506 31.7501 1.67026 32.1404 2.06315C32.5307 2.45604 33.1671 3.34595 33.5551 4.0418C34.1796 5.16603 34.26 5.53288 34.2624 7.31982C34.2648 9.04522 34.1772 9.49965 33.6379 10.515C33.2925 11.1659 32.6561 12.0582 32.2208 12.496C31.7856 12.9339 31.0049 13.5185 30.4845 13.7954C29.7109 14.2096 29.129 14.2995 27.2909 14.2995C25.4575 14.2995 24.8685 14.2072 24.0973 13.8001C23.5768 13.5256 22.6731 12.7682 22.0865 12.1197C21.4998 11.4688 20.8374 10.418 20.6127 9.77893C20.3879 9.14226 20.2011 8.00856 20.1987 7.26065C20.1963 6.46777 20.3903 5.38141 20.6624 4.65716C20.9273 3.95659 21.5731 2.96253 22.1409 2.3803C22.6968 1.81226 23.5508 1.14719 24.0381 0.901044C24.5254 0.657263 25.325 0.361412 25.8123 0.243072C26.2997 0.127099 26.9124 0.0205924 27.1726 0.0087584V0.0087584ZM9.25291 32.0648C10.748 32.1476 11.4955 32.318 12.4465 32.7985C13.1302 33.144 14.2207 33.9819 14.8713 34.6612C15.7111 35.5345 16.2102 36.3321 16.5887 37.4043C16.9767 38.5001 17.121 39.4374 17.1186 40.8101C17.1139 42.3509 17.0004 42.9473 16.4988 44.0053C16.1606 44.7201 15.4982 45.7615 15.0227 46.3153C14.5496 46.8715 14.0291 47.3236 13.8659 47.3212C13.7027 47.3212 13.4898 47.4727 13.3928 47.662C13.2958 47.849 12.4962 48.275 11.6185 48.6087C10.554 49.0111 9.54862 49.2123 8.60236 49.2123C7.6703 49.2123 6.63416 49.0087 5.58618 48.6182C4.42466 48.1875 3.64163 47.6881 2.7143 46.7839C2.01171 46.1023 1.17428 45.0112 0.847819 44.3603C0.523728 43.7095 0.173614 42.4835 0.0695261 41.6385C-0.0345618 40.7746 -0.0203679 39.6054 0.102645 38.9758C0.223292 38.3581 0.535556 37.3735 0.795775 36.7866C1.056 36.1996 1.80117 35.189 2.45172 34.5381C3.10227 33.8872 4.08637 33.1227 4.63993 32.8387C5.19349 32.5571 6.01673 32.2423 6.47329 32.1429C6.92986 32.0411 8.17892 32.0056 9.25291 32.0648V32.0648Z" fill="#FF9F89"/>
</svg>
